<svg xmlns="http://www.w3.org/2000/svg" xmlns:xlink="http://www.w3.org/1999/xlink" width="800" zoomAndPan="magnify" viewBox="0 0 600 599.999999" height="800" preserveAspectRatio="xMidYMid meet" version="1.0"><defs><g/><clipPath id="b540f98082"><path d="M 61.246094 33.335938 L 598.742188 33.335938 L 598.742188 566.664062 L 61.246094 566.664062 Z M 61.246094 33.335938 " clip-rule="nonzero"/></clipPath><clipPath id="6ecd6d9915"><path d="M 329.789062 33.335938 C 181.476562 33.335938 61.246094 152.726562 61.246094 300 C 61.246094 447.273438 181.476562 566.664062 329.789062 566.664062 C 478.097656 566.664062 598.328125 447.273438 598.328125 300 C 598.328125 152.726562 478.097656 33.335938 329.789062 33.335938 Z M 329.789062 33.335938 " clip-rule="nonzero"/></clipPath><clipPath id="28489f7919"><path d="M 0.246094 0.335938 L 537.558594 0.335938 L 537.558594 533.664062 L 0.246094 533.664062 Z M 0.246094 0.335938 " clip-rule="nonzero"/></clipPath><clipPath id="da267fe3bc"><path d="M 268.789062 0.335938 C 120.476562 0.335938 0.246094 119.726562 0.246094 267 C 0.246094 414.273438 120.476562 533.664062 268.789062 533.664062 C 417.097656 533.664062 537.328125 414.273438 537.328125 267 C 537.328125 119.726562 417.097656 0.335938 268.789062 0.335938 Z M 268.789062 0.335938 " clip-rule="nonzero"/></clipPath><clipPath id="a6a42ad1e3"><rect x="0" width="538" y="0" height="534"/></clipPath><clipPath id="8788922011"><rect x="0" width="581" y="0" height="598"/></clipPath></defs><g clip-path="url(#b540f98082)"><g clip-path="url(#6ecd6d9915)"><g transform="matrix(1, 0, 0, 1, 61, 33)"><g clip-path="url(#a6a42ad1e3)"><g clip-path="url(#28489f7919)"><g clip-path="url(#da267fe3bc)"><path fill="#484848" d="M 0.246094 0.335938 L 537.742188 0.335938 L 537.742188 533.664062 L 0.246094 533.664062 Z M 0.246094 0.335938 " fill-opacity="1" fill-rule="nonzero"/></g></g></g></g></g></g><g transform="matrix(1, 0, 0, 1, 1, 2)"><g clip-path="url(#8788922011)"><g fill="#ffffff" fill-opacity="1"><g transform="translate(0.672494, 549.622308)"><g><path d="M 27.703125 17.015625 C 27.046875 17.015625 26.203125 16.191406 25.171875 14.546875 C 24.140625 12.910156 23.109375 10.875 22.078125 8.4375 C 21.046875 6 20.175781 3.535156 19.46875 1.046875 C 18.769531 -1.429688 18.421875 -3.515625 18.421875 -5.203125 C 18.421875 -6.046875 18.609375 -6.84375 18.984375 -7.59375 C 22.265625 -13.78125 26.785156 -21.441406 32.546875 -30.578125 C 38.316406 -39.722656 45.085938 -50.007812 52.859375 -61.4375 C 60.640625 -72.875 69.21875 -85.15625 78.59375 -98.28125 C 87.96875 -111.40625 97.90625 -125.085938 108.40625 -139.328125 C 118.90625 -153.578125 129.707031 -168.082031 140.8125 -182.84375 C 151.914062 -197.613281 163.140625 -212.304688 174.484375 -226.921875 C 185.828125 -241.546875 197.050781 -255.863281 208.15625 -269.875 C 219.269531 -283.894531 230.023438 -297.234375 240.421875 -309.890625 C 250.828125 -322.546875 260.625 -334.257812 269.8125 -345.03125 C 272.53125 -348.21875 275.832031 -352.082031 279.71875 -356.625 C 283.613281 -361.175781 287.765625 -366.125 292.171875 -371.46875 C 296.578125 -376.8125 300.9375 -382.269531 305.25 -387.84375 C 309.5625 -393.425781 313.453125 -398.84375 316.921875 -404.09375 C 320.390625 -409.34375 323.175781 -414.144531 325.28125 -418.5 C 327.394531 -422.863281 328.453125 -426.5 328.453125 -429.40625 C 328.453125 -429.78125 328.425781 -430.128906 328.375 -430.453125 C 328.332031 -430.785156 328.265625 -431.140625 328.171875 -431.515625 C 323.859375 -427.015625 317.765625 -422.816406 309.890625 -418.921875 C 302.015625 -415.035156 292.894531 -411.40625 282.53125 -408.03125 C 272.175781 -404.65625 261.046875 -401.488281 249.140625 -398.53125 C 237.242188 -395.582031 225.082031 -392.769531 212.65625 -390.09375 C 200.238281 -387.425781 188.050781 -384.894531 176.09375 -382.5 C 164.144531 -380.113281 152.925781 -377.796875 142.4375 -375.546875 C 138.78125 -374.796875 134.375 -373.550781 129.21875 -371.8125 C 124.0625 -370.082031 118.644531 -367.878906 112.96875 -365.203125 C 107.300781 -362.535156 101.722656 -359.328125 96.234375 -355.578125 C 90.753906 -351.828125 85.765625 -347.539062 81.265625 -342.71875 C 76.765625 -337.894531 73.175781 -332.484375 70.5 -326.484375 C 67.832031 -320.484375 66.5 -313.875 66.5 -306.65625 C 66.5 -303.1875 66.875 -299.53125 67.625 -295.6875 C 68.375 -291.84375 69.546875 -287.859375 71.140625 -283.734375 C 72.921875 -280.078125 73.8125 -277.5 73.8125 -276 C 73.8125 -275.34375 73.625 -275.015625 73.25 -275.015625 C 72.6875 -275.015625 71.582031 -276.394531 69.9375 -279.15625 C 68.300781 -281.925781 66.78125 -285.75 65.375 -290.625 C 63.96875 -295.5 63.265625 -300.984375 63.265625 -307.078125 C 63.265625 -312.890625 64.128906 -318.957031 65.859375 -325.28125 C 67.597656 -331.613281 70.578125 -337.894531 74.796875 -344.125 C 79.015625 -350.351562 84.734375 -356.253906 91.953125 -361.828125 C 99.171875 -367.410156 108.265625 -372.3125 119.234375 -376.53125 C 130.671875 -381.03125 142.785156 -384.921875 155.578125 -388.203125 C 168.367188 -391.484375 181.488281 -394.578125 194.9375 -397.484375 C 208.394531 -400.390625 221.894531 -403.457031 235.4375 -406.6875 C 248.976562 -409.925781 262.265625 -413.703125 275.296875 -418.015625 C 288.328125 -422.328125 300.796875 -427.550781 312.703125 -433.6875 C 324.609375 -439.820312 335.617188 -447.25 345.734375 -455.96875 C 354.828125 -453.4375 359.375 -447.90625 359.375 -439.375 C 359.375 -428.039062 351.78125 -411.425781 336.59375 -389.53125 C 321.414062 -367.644531 299.15625 -340.441406 269.8125 -307.921875 C 258.65625 -295.453125 246.84375 -281.953125 234.375 -267.421875 C 221.914062 -252.890625 209.453125 -238.175781 196.984375 -223.28125 C 216.859375 -242.675781 236.632812 -260.859375 256.3125 -277.828125 C 276 -294.796875 295.117188 -310.238281 313.671875 -324.15625 C 332.234375 -338.070312 349.785156 -350.253906 366.328125 -360.703125 C 382.878906 -371.160156 397.953125 -379.578125 411.546875 -385.953125 C 418.578125 -389.234375 426.566406 -392.75 435.515625 -396.5 C 444.460938 -400.25 453.90625 -403.785156 463.84375 -407.109375 C 473.78125 -410.441406 483.765625 -413.160156 493.796875 -415.265625 C 503.828125 -417.378906 513.484375 -418.4375 522.765625 -418.4375 C 531.566406 -418.4375 539.71875 -417.21875 547.21875 -414.78125 C 554.71875 -412.34375 561.160156 -408.285156 566.546875 -402.609375 C 571.941406 -396.941406 575.859375 -389.234375 578.296875 -379.484375 C 578.859375 -377.328125 579.253906 -375.125 579.484375 -372.875 C 579.722656 -370.625 579.84375 -368.375 579.84375 -366.125 C 579.84375 -358.90625 578.691406 -351.59375 576.390625 -344.1875 C 574.097656 -336.789062 570.984375 -329.503906 567.046875 -322.328125 C 563.109375 -315.160156 558.65625 -308.296875 553.6875 -301.734375 C 548.71875 -295.171875 543.609375 -289.078125 538.359375 -283.453125 C 528.804688 -273.328125 518.546875 -263.785156 507.578125 -254.828125 C 496.609375 -245.878906 485.050781 -237.796875 472.90625 -230.578125 C 460.769531 -223.367188 448.1875 -217.328125 435.15625 -212.453125 C 419.039062 -206.359375 403.175781 -201.785156 387.5625 -198.734375 C 371.957031 -195.691406 357.453125 -194.171875 344.046875 -194.171875 C 330.179688 -194.171875 317.8125 -195.8125 306.9375 -199.09375 C 296.0625 -202.375 287.578125 -207.296875 281.484375 -213.859375 C 276.984375 -218.828125 273.421875 -223.46875 270.796875 -227.78125 C 268.171875 -232.09375 266.859375 -235.84375 266.859375 -239.03125 C 266.859375 -240.988281 267.46875 -242.671875 268.6875 -244.078125 C 269.90625 -245.484375 270.984375 -246.1875 271.921875 -246.1875 C 273.421875 -246.1875 274.3125 -244.828125 274.59375 -242.109375 C 275.53125 -234.335938 277.921875 -227.6875 281.765625 -222.15625 C 285.609375 -216.625 291.328125 -212.40625 298.921875 -209.5 C 306.515625 -206.59375 316.3125 -205.140625 328.3125 -205.140625 C 339.175781 -205.140625 352.109375 -206.40625 367.109375 -208.9375 C 379.953125 -211.1875 392.140625 -214.347656 403.671875 -218.421875 C 415.203125 -222.503906 425.367188 -226.84375 434.171875 -231.4375 C 453.484375 -241.644531 471.671875 -253.734375 488.734375 -267.703125 C 505.796875 -281.671875 521.117188 -297.234375 534.703125 -314.390625 C 539.578125 -320.484375 544.097656 -326.710938 548.265625 -333.078125 C 552.441406 -339.453125 555.816406 -346.109375 558.390625 -353.046875 C 560.972656 -359.984375 562.265625 -367.34375 562.265625 -375.125 C 562.171875 -382.15625 560.691406 -387.941406 557.828125 -392.484375 C 554.972656 -397.035156 551.269531 -400.625 546.71875 -403.25 C 542.175781 -405.875 537.210938 -407.703125 531.828125 -408.734375 C 526.441406 -409.765625 521.171875 -410.28125 516.015625 -410.28125 C 513.109375 -410.28125 510.316406 -410.160156 507.640625 -409.921875 C 504.972656 -409.691406 502.5625 -409.34375 500.40625 -408.875 C 488.21875 -406.53125 475.609375 -403.203125 462.578125 -398.890625 C 449.546875 -394.578125 435.859375 -389 421.515625 -382.15625 C 407.179688 -375.3125 391.90625 -366.875 375.6875 -356.84375 C 363.40625 -349.25 349.71875 -339.992188 334.625 -329.078125 C 319.539062 -318.160156 303.207031 -305.203125 285.625 -290.203125 C 268.050781 -275.203125 249.375 -257.882812 229.59375 -238.25 C 209.820312 -218.613281 189.132812 -196.304688 167.53125 -171.328125 C 145.925781 -146.347656 123.519531 -118.367188 100.3125 -87.390625 C 77.113281 -56.410156 53.285156 -22.078125 28.828125 15.609375 C 28.640625 16.078125 28.519531 16.425781 28.46875 16.65625 C 28.425781 16.894531 28.171875 17.015625 27.703125 17.015625 Z M 27.703125 17.015625 "/></g></g></g></g></g></svg>