<svg xmlns="http://www.w3.org/2000/svg" xmlns:xlink="http://www.w3.org/1999/xlink" width="800" zoomAndPan="magnify" viewBox="0 0 600 599.999999" height="800" preserveAspectRatio="xMidYMid meet" version="1.0"><defs><g/><clipPath id="03c434e7b5"><rect x="0" width="373" y="0" height="89"/></clipPath><clipPath id="a1fb657894"><path d="M 25.679688 219.066406 L 173.339844 219.066406 L 173.339844 365.585938 L 25.679688 365.585938 Z M 25.679688 219.066406 " clip-rule="nonzero"/></clipPath><clipPath id="dffa58022f"><path d="M 99.453125 219.066406 C 58.707031 219.066406 25.679688 251.867188 25.679688 292.328125 C 25.679688 332.785156 58.707031 365.585938 99.453125 365.585938 C 140.195312 365.585938 173.226562 332.785156 173.226562 292.328125 C 173.226562 251.867188 140.195312 219.066406 99.453125 219.066406 Z M 99.453125 219.066406 " clip-rule="nonzero"/></clipPath><clipPath id="7b760635a8"><path d="M 0.679688 0.0664062 L 148.28125 0.0664062 L 148.28125 146.585938 L 0.679688 146.585938 Z M 0.679688 0.0664062 " clip-rule="nonzero"/></clipPath><clipPath id="c3db73761b"><path d="M 74.453125 0.0664062 C 33.707031 0.0664062 0.679688 32.867188 0.679688 73.328125 C 0.679688 113.785156 33.707031 146.585938 74.453125 146.585938 C 115.195312 146.585938 148.226562 113.785156 148.226562 73.328125 C 148.226562 32.867188 115.195312 0.0664062 74.453125 0.0664062 Z M 74.453125 0.0664062 " clip-rule="nonzero"/></clipPath><clipPath id="7c69b51001"><rect x="0" width="149" y="0" height="147"/></clipPath><clipPath id="f15378c744"><path d="M 5 26 L 159.71875 26 L 159.71875 157 L 5 157 Z M 5 26 " clip-rule="nonzero"/></clipPath><clipPath id="90258e68f7"><rect x="0" width="160" y="0" height="210"/></clipPath></defs><g fill="#484848" fill-opacity="1"><g transform="translate(212.878117, 339.29942)"><g><path d="M 4.796875 0 L 4.796875 -21.390625 L 0.40625 -21.390625 L 0.40625 -23.796875 L 11.796875 -23.796875 L 11.796875 -21.390625 L 7.40625 -21.390625 L 7.40625 0 Z M 4.796875 0 "/></g></g></g><g fill="#484848" fill-opacity="1"><g transform="translate(226.068703, 339.29942)"><g><path d="M 9.828125 -13.265625 L 9.828125 -10.875 L 4.015625 -10.875 L 4.015625 -2.40625 L 11.15625 -2.40625 L 11.15625 0 L 1.359375 0 L 1.359375 -23.796875 L 11.15625 -23.796875 L 11.15625 -21.390625 L 4.015625 -21.390625 L 4.015625 -13.265625 Z M 9.828125 -13.265625 "/></g></g></g><g fill="#484848" fill-opacity="1"><g transform="translate(239.259288, 339.29942)"><g><path d="M 6.65625 -23.796875 C 8.539062 -23.796875 9.894531 -23.332031 10.71875 -22.40625 C 11.550781 -21.476562 11.96875 -20.128906 11.96875 -18.359375 L 11.96875 -16.421875 C 11.96875 -15.109375 11.726562 -14.039062 11.25 -13.21875 C 10.78125 -12.40625 10.035156 -11.84375 9.015625 -11.53125 C 10.097656 -11.207031 10.863281 -10.617188 11.3125 -9.765625 C 11.769531 -8.921875 12 -7.851562 12 -6.5625 L 12 -2.859375 C 12 -2.335938 12.019531 -1.832031 12.0625 -1.34375 C 12.113281 -0.851562 12.253906 -0.40625 12.484375 0 L 9.796875 0 C 9.628906 -0.34375 9.507812 -0.710938 9.4375 -1.109375 C 9.375 -1.503906 9.34375 -2.097656 9.34375 -2.890625 L 9.34375 -6.625 C 9.34375 -7.96875 9.039062 -8.894531 8.4375 -9.40625 C 7.84375 -9.914062 6.988281 -10.171875 5.875 -10.171875 L 4.015625 -10.171875 L 4.015625 0 L 1.359375 0 L 1.359375 -23.796875 Z M 5.984375 -12.578125 C 7.046875 -12.578125 7.867188 -12.796875 8.453125 -13.234375 C 9.046875 -13.679688 9.34375 -14.550781 9.34375 -15.84375 L 9.34375 -18.125 C 9.34375 -19.207031 9.132812 -20.019531 8.71875 -20.5625 C 8.300781 -21.113281 7.59375 -21.390625 6.59375 -21.390625 L 4.015625 -21.390625 L 4.015625 -12.578125 Z M 5.984375 -12.578125 "/></g></g></g><g fill="#484848" fill-opacity="1"><g transform="translate(253.605738, 339.29942)"><g><path d="M 6.5 -24.03125 C 8.332031 -24.03125 9.679688 -23.488281 10.546875 -22.40625 C 11.421875 -21.320312 11.859375 -19.867188 11.859375 -18.046875 L 11.859375 -15.90625 L 9.34375 -15.90625 L 9.34375 -18.1875 C 9.34375 -19.28125 9.125 -20.125 8.6875 -20.71875 C 8.25 -21.320312 7.539062 -21.625 6.5625 -21.625 C 5.613281 -21.625 4.910156 -21.320312 4.453125 -20.71875 C 4.003906 -20.125 3.78125 -19.28125 3.78125 -18.1875 L 3.78125 -5.609375 C 3.78125 -4.523438 4.003906 -3.679688 4.453125 -3.078125 C 4.910156 -2.472656 5.613281 -2.171875 6.5625 -2.171875 C 7.539062 -2.171875 8.25 -2.472656 8.6875 -3.078125 C 9.125 -3.679688 9.34375 -4.523438 9.34375 -5.609375 L 9.34375 -8.703125 L 11.859375 -8.703125 L 11.859375 -5.75 C 11.859375 -3.9375 11.421875 -2.484375 10.546875 -1.390625 C 9.679688 -0.304688 8.332031 0.234375 6.5 0.234375 C 4.6875 0.234375 3.34375 -0.304688 2.46875 -1.390625 C 1.59375 -2.484375 1.15625 -3.9375 1.15625 -5.75 L 1.15625 -18.046875 C 1.15625 -18.953125 1.257812 -19.773438 1.46875 -20.515625 C 1.6875 -21.253906 2.015625 -21.882812 2.453125 -22.40625 C 2.898438 -22.925781 3.457031 -23.328125 4.125 -23.609375 C 4.800781 -23.890625 5.59375 -24.03125 6.5 -24.03125 Z M 6.5 -24.03125 "/></g></g></g><g fill="#484848" fill-opacity="1"><g transform="translate(267.476252, 339.29942)"><g><path d="M 9.828125 -13.265625 L 9.828125 -10.875 L 4.015625 -10.875 L 4.015625 -2.40625 L 11.15625 -2.40625 L 11.15625 0 L 1.359375 0 L 1.359375 -23.796875 L 11.15625 -23.796875 L 11.15625 -21.390625 L 4.015625 -21.390625 L 4.015625 -13.265625 Z M 9.828125 -13.265625 "/></g></g></g><g fill="#484848" fill-opacity="1"><g transform="translate(280.666837, 339.29942)"><g><path d="M 4.015625 -23.796875 L 4.015625 0 L 1.359375 0 L 1.359375 -23.796875 Z M 4.015625 -23.796875 "/></g></g></g><g fill="#484848" fill-opacity="1"><g transform="translate(286.990213, 339.29942)"><g><path d="M 6.65625 -23.796875 C 8.539062 -23.796875 9.894531 -23.332031 10.71875 -22.40625 C 11.550781 -21.476562 11.96875 -20.128906 11.96875 -18.359375 L 11.96875 -16.421875 C 11.96875 -15.109375 11.726562 -14.039062 11.25 -13.21875 C 10.78125 -12.40625 10.035156 -11.84375 9.015625 -11.53125 C 10.097656 -11.207031 10.863281 -10.617188 11.3125 -9.765625 C 11.769531 -8.921875 12 -7.851562 12 -6.5625 L 12 -2.859375 C 12 -2.335938 12.019531 -1.832031 12.0625 -1.34375 C 12.113281 -0.851562 12.253906 -0.40625 12.484375 0 L 9.796875 0 C 9.628906 -0.34375 9.507812 -0.710938 9.4375 -1.109375 C 9.375 -1.503906 9.34375 -2.097656 9.34375 -2.890625 L 9.34375 -6.625 C 9.34375 -7.96875 9.039062 -8.894531 8.4375 -9.40625 C 7.84375 -9.914062 6.988281 -10.171875 5.875 -10.171875 L 4.015625 -10.171875 L 4.015625 0 L 1.359375 0 L 1.359375 -23.796875 Z M 5.984375 -12.578125 C 7.046875 -12.578125 7.867188 -12.796875 8.453125 -13.234375 C 9.046875 -13.679688 9.34375 -14.550781 9.34375 -15.84375 L 9.34375 -18.125 C 9.34375 -19.207031 9.132812 -20.019531 8.71875 -20.5625 C 8.300781 -21.113281 7.59375 -21.390625 6.59375 -21.390625 L 4.015625 -21.390625 L 4.015625 -12.578125 Z M 5.984375 -12.578125 "/></g></g></g><g fill="#484848" fill-opacity="1"><g transform="translate(301.336663, 339.29942)"><g><path d="M 4.015625 -23.796875 L 4.015625 0 L 1.359375 0 L 1.359375 -23.796875 Z M 4.015625 -23.796875 "/></g></g></g><g fill="#484848" fill-opacity="1"><g transform="translate(307.660038, 339.29942)"><g><path d="M 11.796875 0 L 0.984375 0 L 0.984375 -2.375 L 9.140625 -21.390625 L 1.359375 -21.390625 L 1.359375 -23.796875 L 11.859375 -23.796875 L 11.859375 -21.421875 L 3.671875 -2.40625 L 11.796875 -2.40625 Z M 11.796875 0 "/></g></g></g><g fill="#484848" fill-opacity="1"><g transform="translate(321.496552, 339.29942)"><g><path d="M 4.046875 -4.796875 L 3.125 0 L 0.6875 0 L 5.234375 -23.796875 L 9.078125 -23.796875 L 13.640625 0 L 10.984375 0 L 10.0625 -4.796875 Z M 4.390625 -7.078125 L 9.6875 -7.078125 L 7 -20.8125 Z M 4.390625 -7.078125 "/></g></g></g><g fill="#484848" fill-opacity="1"><g transform="translate(336.760898, 339.29942)"><g><path d="M 6.5 -24.03125 C 8.332031 -24.03125 9.679688 -23.488281 10.546875 -22.40625 C 11.421875 -21.320312 11.859375 -19.867188 11.859375 -18.046875 L 11.859375 -15.90625 L 9.34375 -15.90625 L 9.34375 -18.1875 C 9.34375 -19.28125 9.125 -20.125 8.6875 -20.71875 C 8.25 -21.320312 7.539062 -21.625 6.5625 -21.625 C 5.613281 -21.625 4.910156 -21.320312 4.453125 -20.71875 C 4.003906 -20.125 3.78125 -19.28125 3.78125 -18.1875 L 3.78125 -5.609375 C 3.78125 -4.523438 4.003906 -3.679688 4.453125 -3.078125 C 4.910156 -2.472656 5.613281 -2.171875 6.5625 -2.171875 C 7.539062 -2.171875 8.25 -2.472656 8.6875 -3.078125 C 9.125 -3.679688 9.34375 -4.523438 9.34375 -5.609375 L 9.34375 -8.703125 L 11.859375 -8.703125 L 11.859375 -5.75 C 11.859375 -4.050781 11.46875 -2.660156 10.6875 -1.578125 C 9.90625 -0.503906 8.703125 0.0859375 7.078125 0.203125 L 7.078125 1.265625 C 7.867188 1.265625 8.484375 1.414062 8.921875 1.71875 C 9.367188 2.019531 9.59375 2.441406 9.59375 2.984375 C 9.59375 3.671875 9.304688 4.207031 8.734375 4.59375 C 8.171875 4.976562 7.378906 5.171875 6.359375 5.171875 C 5.359375 5.171875 4.585938 4.984375 4.046875 4.609375 C 3.503906 4.234375 3.234375 3.71875 3.234375 3.0625 L 3.234375 2.78125 L 4.96875 2.78125 L 4.96875 3.03125 C 4.96875 3.613281 5.429688 3.941406 6.359375 4.015625 C 7.328125 4.015625 7.8125 3.648438 7.8125 2.921875 C 7.8125 2.242188 7.257812 1.90625 6.15625 1.90625 L 5.84375 1.90625 L 5.84375 0.203125 C 4.238281 0.0859375 3.054688 -0.507812 2.296875 -1.59375 C 1.535156 -2.6875 1.15625 -4.070312 1.15625 -5.75 L 1.15625 -18.046875 C 1.15625 -18.953125 1.257812 -19.773438 1.46875 -20.515625 C 1.6875 -21.253906 2.015625 -21.882812 2.453125 -22.40625 C 2.898438 -22.925781 3.457031 -23.328125 4.125 -23.609375 C 4.800781 -23.890625 5.59375 -24.03125 6.5 -24.03125 Z M 6.5 -24.03125 "/></g></g></g><g fill="#484848" fill-opacity="1"><g transform="translate(350.631412, 339.29942)"><g><path d="M 5.46875 -28.078125 C 5.8125 -28.078125 6.125 -28.023438 6.40625 -27.921875 C 6.6875 -27.828125 6.945312 -27.710938 7.1875 -27.578125 C 7.425781 -27.441406 7.660156 -27.320312 7.890625 -27.21875 C 8.117188 -27.113281 8.359375 -27.0625 8.609375 -27.0625 C 8.898438 -27.082031 9.148438 -27.164062 9.359375 -27.3125 C 9.578125 -27.46875 9.78125 -27.722656 9.96875 -28.078125 L 11.28125 -27.171875 C 11.007812 -26.515625 10.671875 -26.023438 10.265625 -25.703125 C 9.859375 -25.390625 9.394531 -25.234375 8.875 -25.234375 C 8.53125 -25.234375 8.222656 -25.28125 7.953125 -25.375 C 7.679688 -25.476562 7.425781 -25.59375 7.1875 -25.71875 C 6.945312 -25.84375 6.710938 -25.957031 6.484375 -26.0625 C 6.265625 -26.164062 6.019531 -26.21875 5.75 -26.21875 C 5.425781 -26.21875 5.148438 -26.140625 4.921875 -25.984375 C 4.703125 -25.835938 4.5 -25.570312 4.3125 -25.1875 L 2.984375 -26.109375 C 3.265625 -26.816406 3.617188 -27.316406 4.046875 -27.609375 C 4.472656 -27.898438 4.945312 -28.054688 5.46875 -28.078125 Z M 4.046875 -4.796875 L 3.125 0 L 0.6875 0 L 5.234375 -23.796875 L 9.078125 -23.796875 L 13.640625 0 L 10.984375 0 L 10.0625 -4.796875 Z M 4.390625 -7.078125 L 9.6875 -7.078125 L 7 -20.8125 Z M 4.390625 -7.078125 "/></g></g></g><g fill="#484848" fill-opacity="1"><g transform="translate(365.895758, 339.29942)"><g><path d="M 1.15625 -18.046875 C 1.15625 -19.890625 1.601562 -21.347656 2.5 -22.421875 C 3.394531 -23.492188 4.757812 -24.03125 6.59375 -24.03125 C 8.425781 -24.03125 9.796875 -23.492188 10.703125 -22.421875 C 11.609375 -21.347656 12.0625 -19.890625 12.0625 -18.046875 L 12.0625 -5.75 C 12.0625 -3.9375 11.609375 -2.484375 10.703125 -1.390625 C 9.796875 -0.304688 8.425781 0.234375 6.59375 0.234375 C 4.757812 0.234375 3.394531 -0.304688 2.5 -1.390625 C 1.601562 -2.484375 1.15625 -3.9375 1.15625 -5.75 Z M 3.78125 -5.609375 C 3.78125 -4.523438 4.007812 -3.679688 4.46875 -3.078125 C 4.9375 -2.472656 5.644531 -2.171875 6.59375 -2.171875 C 7.570312 -2.171875 8.285156 -2.472656 8.734375 -3.078125 C 9.191406 -3.679688 9.421875 -4.523438 9.421875 -5.609375 L 9.421875 -18.1875 C 9.421875 -19.28125 9.191406 -20.125 8.734375 -20.71875 C 8.285156 -21.320312 7.570312 -21.625 6.59375 -21.625 C 5.644531 -21.625 4.9375 -21.320312 4.46875 -20.71875 C 4.007812 -20.125 3.78125 -19.28125 3.78125 -18.1875 Z M 3.78125 -5.609375 "/></g></g></g><g fill="#484848" fill-opacity="1"><g transform="translate(380.072229, 339.29942)"><g/></g></g><g fill="#484848" fill-opacity="1"><g transform="translate(386.293615, 339.29942)"><g><path d="M 4.046875 -4.796875 L 3.125 0 L 0.6875 0 L 5.234375 -23.796875 L 9.078125 -23.796875 L 13.640625 0 L 10.984375 0 L 10.0625 -4.796875 Z M 4.390625 -7.078125 L 9.6875 -7.078125 L 7 -20.8125 Z M 4.390625 -7.078125 "/></g></g></g><g fill="#484848" fill-opacity="1"><g transform="translate(401.591962, 339.29942)"><g><path d="M 6.9375 -23.796875 C 8.789062 -23.796875 10.15625 -23.269531 11.03125 -22.21875 C 11.90625 -21.164062 12.34375 -19.722656 12.34375 -17.890625 L 12.34375 -5.875 C 12.34375 -4.039062 11.90625 -2.601562 11.03125 -1.5625 C 10.15625 -0.519531 8.789062 0 6.9375 0 L 1.359375 0 L 1.359375 -23.796875 Z M 6.90625 -2.40625 C 7.851562 -2.40625 8.554688 -2.691406 9.015625 -3.265625 C 9.484375 -3.847656 9.71875 -4.6875 9.71875 -5.78125 L 9.71875 -18.015625 C 9.71875 -19.109375 9.484375 -19.941406 9.015625 -20.515625 C 8.554688 -21.097656 7.84375 -21.390625 6.875 -21.390625 L 4.015625 -21.390625 L 4.015625 -2.40625 Z M 6.90625 -2.40625 "/></g></g></g><g fill="#484848" fill-opacity="1"><g transform="translate(416.006413, 339.29942)"><g><path d="M 10.125 -0.03125 L 7.578125 -0.03125 L 3.640625 -18.96875 L 3.640625 0 L 1.328125 0 L 1.328125 -23.796875 L 5.03125 -23.796875 L 8.9375 -4.796875 L 12.71875 -23.796875 L 16.421875 -23.796875 L 16.421875 0 L 13.90625 0 L 13.90625 -19.140625 Z M 10.125 -0.03125 "/></g></g></g><g fill="#484848" fill-opacity="1"><g transform="translate(434.738354, 339.29942)"><g><path d="M 4.015625 -23.796875 L 4.015625 0 L 1.359375 0 L 1.359375 -23.796875 Z M 4.015625 -23.796875 "/></g></g></g><g fill="#484848" fill-opacity="1"><g transform="translate(441.061741, 339.29942)"><g><path d="M 3.703125 0 L 1.328125 0 L 1.328125 -23.796875 L 4.6875 -23.796875 L 10.203125 -6.59375 L 10.203125 -23.796875 L 12.546875 -23.796875 L 12.546875 0 L 9.796875 0 L 3.703125 -19.25 Z M 3.703125 0 "/></g></g></g><g fill="#484848" fill-opacity="1"><g transform="translate(455.91814, 339.29942)"><g><path d="M 4.015625 -23.796875 L 4.015625 0 L 1.359375 0 L 1.359375 -23.796875 Z M 4.015625 -23.796875 "/></g></g></g><g fill="#484848" fill-opacity="1"><g transform="translate(462.241527, 339.29942)"><g><path d="M 6.359375 -24.03125 C 8.171875 -24.03125 9.503906 -23.492188 10.359375 -22.421875 C 11.222656 -21.347656 11.65625 -19.90625 11.65625 -18.09375 L 11.65625 -17.4375 L 9.140625 -17.4375 L 9.140625 -18.21875 C 9.140625 -19.3125 8.925781 -20.148438 8.5 -20.734375 C 8.070312 -21.328125 7.378906 -21.625 6.421875 -21.625 C 5.472656 -21.625 4.78125 -21.328125 4.34375 -20.734375 C 3.914062 -20.148438 3.703125 -19.328125 3.703125 -18.265625 C 3.703125 -17.378906 3.898438 -16.601562 4.296875 -15.9375 C 4.691406 -15.28125 5.179688 -14.675781 5.765625 -14.125 C 6.359375 -13.570312 7 -13.03125 7.6875 -12.5 C 8.382812 -11.96875 9.023438 -11.382812 9.609375 -10.75 C 10.203125 -10.113281 10.695312 -9.390625 11.09375 -8.578125 C 11.5 -7.773438 11.703125 -6.820312 11.703125 -5.71875 C 11.703125 -3.894531 11.265625 -2.445312 10.390625 -1.375 C 9.515625 -0.300781 8.160156 0.234375 6.328125 0.234375 C 4.484375 0.234375 3.128906 -0.300781 2.265625 -1.375 C 1.410156 -2.445312 0.984375 -3.894531 0.984375 -5.71875 L 0.984375 -7.078125 L 3.46875 -7.078125 L 3.46875 -5.578125 C 3.46875 -4.484375 3.691406 -3.640625 4.140625 -3.046875 C 4.597656 -2.460938 5.300781 -2.171875 6.25 -2.171875 C 7.207031 -2.171875 7.910156 -2.460938 8.359375 -3.046875 C 8.816406 -3.640625 9.046875 -4.484375 9.046875 -5.578125 C 9.046875 -6.460938 8.847656 -7.226562 8.453125 -7.875 C 8.054688 -8.519531 7.5625 -9.117188 6.96875 -9.671875 C 6.382812 -10.222656 5.75 -10.765625 5.0625 -11.296875 C 4.382812 -11.835938 3.75 -12.425781 3.15625 -13.0625 C 2.570312 -13.695312 2.082031 -14.414062 1.6875 -15.21875 C 1.289062 -16.019531 1.09375 -16.976562 1.09375 -18.09375 C 1.09375 -19.925781 1.519531 -21.375 2.375 -22.4375 C 3.238281 -23.5 4.566406 -24.03125 6.359375 -24.03125 Z M 6.359375 -24.03125 "/></g></g></g><g fill="#484848" fill-opacity="1"><g transform="translate(475.84006, 339.29942)"><g><path d="M 4.828125 0 L 4.828125 -21.390625 L 0.4375 -21.390625 L 0.4375 -23.796875 L 11.859375 -23.796875 L 11.859375 -21.390625 L 7.484375 -21.390625 L 7.484375 0 Z M 4.828125 0 "/></g></g></g><g fill="#484848" fill-opacity="1"><g transform="translate(489.132623, 339.29942)"><g><path d="M 6.65625 -23.796875 C 8.539062 -23.796875 9.894531 -23.332031 10.71875 -22.40625 C 11.550781 -21.476562 11.96875 -20.128906 11.96875 -18.359375 L 11.96875 -16.421875 C 11.96875 -15.109375 11.726562 -14.039062 11.25 -13.21875 C 10.78125 -12.40625 10.035156 -11.84375 9.015625 -11.53125 C 10.097656 -11.207031 10.863281 -10.617188 11.3125 -9.765625 C 11.769531 -8.921875 12 -7.851562 12 -6.5625 L 12 -2.859375 C 12 -2.335938 12.019531 -1.832031 12.0625 -1.34375 C 12.113281 -0.851562 12.253906 -0.40625 12.484375 0 L 9.796875 0 C 9.628906 -0.34375 9.507812 -0.710938 9.4375 -1.109375 C 9.375 -1.503906 9.34375 -2.097656 9.34375 -2.890625 L 9.34375 -6.625 C 9.34375 -7.96875 9.039062 -8.894531 8.4375 -9.40625 C 7.84375 -9.914062 6.988281 -10.171875 5.875 -10.171875 L 4.015625 -10.171875 L 4.015625 0 L 1.359375 0 L 1.359375 -23.796875 Z M 5.984375 -12.578125 C 7.046875 -12.578125 7.867188 -12.796875 8.453125 -13.234375 C 9.046875 -13.679688 9.34375 -14.550781 9.34375 -15.84375 L 9.34375 -18.125 C 9.34375 -19.207031 9.132812 -20.019531 8.71875 -20.5625 C 8.300781 -21.113281 7.59375 -21.390625 6.59375 -21.390625 L 4.015625 -21.390625 L 4.015625 -12.578125 Z M 5.984375 -12.578125 "/></g></g></g><g fill="#484848" fill-opacity="1"><g transform="translate(503.479074, 339.29942)"><g><path d="M 4.046875 -4.796875 L 3.125 0 L 0.6875 0 L 5.234375 -23.796875 L 9.078125 -23.796875 L 13.640625 0 L 10.984375 0 L 10.0625 -4.796875 Z M 4.390625 -7.078125 L 9.6875 -7.078125 L 7 -20.8125 Z M 4.390625 -7.078125 "/></g></g></g><g fill="#484848" fill-opacity="1"><g transform="translate(518.777443, 339.29942)"><g><path d="M 4.828125 0 L 4.828125 -21.390625 L 0.4375 -21.390625 L 0.4375 -23.796875 L 11.859375 -23.796875 L 11.859375 -21.390625 L 7.484375 -21.390625 L 7.484375 0 Z M 4.828125 0 "/></g></g></g><g fill="#484848" fill-opacity="1"><g transform="translate(532.070007, 339.29942)"><g><path d="M 4.015625 -23.796875 L 4.015625 0 L 1.359375 0 L 1.359375 -23.796875 Z M 4.015625 -23.796875 "/></g></g></g><g fill="#484848" fill-opacity="1"><g transform="translate(538.393394, 339.29942)"><g><path d="M 3.359375 -23.796875 L 7.234375 -3.09375 L 11.078125 -23.796875 L 13.53125 -23.796875 L 9.078125 0 L 5.171875 0 L 0.6875 -23.796875 Z M 3.359375 -23.796875 "/></g></g></g><g fill="#484848" fill-opacity="1"><g transform="translate(552.705786, 339.29942)"><g><path d="M 4.046875 -4.796875 L 3.125 0 L 0.6875 0 L 5.234375 -23.796875 L 9.078125 -23.796875 L 13.640625 0 L 10.984375 0 L 10.0625 -4.796875 Z M 4.390625 -7.078125 L 9.6875 -7.078125 L 7 -20.8125 Z M 4.390625 -7.078125 "/></g></g></g><g transform="matrix(1, 0, 0, 1, 205, 227)"><g clip-path="url(#03c434e7b5)"><g fill="#484848" fill-opacity="1"><g transform="translate(0.768799, 65.833059)"><g><path d="M 16.765625 -60.828125 C 21.578125 -60.828125 25.054688 -59.507812 27.203125 -56.875 C 29.347656 -54.238281 30.421875 -50.601562 30.421875 -45.96875 L 30.421875 -38.671875 C 30.421875 -33.804688 29.273438 -30.140625 26.984375 -27.671875 C 24.691406 -25.210938 21.113281 -23.984375 16.25 -23.984375 L 10.25 -23.984375 L 10.25 0 L 3.46875 0 L 3.46875 -60.828125 Z M 16.25 -30.0625 C 18.800781 -30.0625 20.679688 -30.6875 21.890625 -31.9375 C 23.109375 -33.1875 23.71875 -35.285156 23.71875 -38.234375 L 23.71875 -46.328125 C 23.71875 -49.109375 23.179688 -51.191406 22.109375 -52.578125 C 21.046875 -53.960938 19.265625 -54.65625 16.765625 -54.65625 L 10.25 -54.65625 L 10.25 -30.0625 Z M 16.25 -30.0625 "/></g></g></g><g fill="#484848" fill-opacity="1"><g transform="translate(35.70138, 65.833059)"><g><path d="M 17.03125 -60.828125 C 21.84375 -60.828125 25.304688 -59.640625 27.421875 -57.265625 C 29.535156 -54.890625 30.59375 -51.441406 30.59375 -46.921875 L 30.59375 -41.96875 C 30.59375 -38.613281 29.984375 -35.890625 28.765625 -33.796875 C 27.546875 -31.710938 25.632812 -30.269531 23.03125 -29.46875 C 25.8125 -28.65625 27.78125 -27.160156 28.9375 -24.984375 C 30.09375 -22.804688 30.671875 -20.066406 30.671875 -16.765625 L 30.671875 -7.296875 C 30.671875 -5.960938 30.726562 -4.671875 30.84375 -3.421875 C 30.96875 -2.179688 31.316406 -1.039062 31.890625 0 L 25.03125 0 C 24.625 -0.863281 24.332031 -1.800781 24.15625 -2.8125 C 23.988281 -3.832031 23.90625 -5.359375 23.90625 -7.390625 L 23.90625 -16.953125 C 23.90625 -20.367188 23.132812 -22.726562 21.59375 -24.03125 C 20.0625 -25.332031 17.875 -25.984375 15.03125 -25.984375 L 10.25 -25.984375 L 10.25 0 L 3.46875 0 L 3.46875 -60.828125 Z M 15.296875 -32.15625 C 18.015625 -32.15625 20.128906 -32.71875 21.640625 -33.84375 C 23.148438 -34.976562 23.90625 -37.195312 23.90625 -40.5 L 23.90625 -46.328125 C 23.90625 -49.109375 23.367188 -51.191406 22.296875 -52.578125 C 21.222656 -53.960938 19.410156 -54.65625 16.859375 -54.65625 L 10.25 -54.65625 L 10.25 -32.15625 Z M 15.296875 -32.15625 "/></g></g></g><g fill="#484848" fill-opacity="1"><g transform="translate(72.37188, 65.833059)"><g><path d="M 2.953125 -46.140625 C 2.953125 -50.835938 4.097656 -54.5625 6.390625 -57.3125 C 8.679688 -60.0625 12.171875 -61.4375 16.859375 -61.4375 C 21.554688 -61.4375 25.0625 -60.0625 27.375 -57.3125 C 29.695312 -54.5625 30.859375 -50.835938 30.859375 -46.140625 L 30.859375 -14.6875 C 30.859375 -10.050781 29.695312 -6.34375 27.375 -3.5625 C 25.0625 -0.78125 21.554688 0.609375 16.859375 0.609375 C 12.171875 0.609375 8.679688 -0.78125 6.390625 -3.5625 C 4.097656 -6.34375 2.953125 -10.050781 2.953125 -14.6875 Z M 9.640625 -14.34375 C 9.640625 -11.5625 10.234375 -9.398438 11.421875 -7.859375 C 12.609375 -6.328125 14.421875 -5.5625 16.859375 -5.5625 C 19.347656 -5.5625 21.171875 -6.328125 22.328125 -7.859375 C 23.492188 -9.398438 24.078125 -11.5625 24.078125 -14.34375 L 24.078125 -46.5 C 24.078125 -49.28125 23.492188 -51.4375 22.328125 -52.96875 C 21.171875 -54.5 19.347656 -55.265625 16.859375 -55.265625 C 14.421875 -55.265625 12.609375 -54.5 11.421875 -52.96875 C 10.234375 -51.4375 9.640625 -49.28125 9.640625 -46.5 Z M 9.640625 -14.34375 "/></g></g></g><g fill="#484848" fill-opacity="1"><g transform="translate(108.607908, 65.833059)"><g><path d="M 9.46875 0 L 3.390625 0 L 3.390625 -60.828125 L 12 -60.828125 L 26.078125 -16.859375 L 26.078125 -60.828125 L 32.0625 -60.828125 L 32.0625 0 L 25.03125 0 L 9.46875 -49.1875 Z M 9.46875 0 "/></g></g></g><g fill="#484848" fill-opacity="1"><g transform="translate(146.581854, 65.833059)"><g><path d="M 12.25 0 L 12.25 -54.65625 L 1.046875 -54.65625 L 1.046875 -60.828125 L 30.15625 -60.828125 L 30.15625 -54.65625 L 18.953125 -54.65625 L 18.953125 0 Z M 12.25 0 "/></g></g></g><g fill="#484848" fill-opacity="1"><g transform="translate(180.297888, 65.833059)"><g><path d="M 2.953125 -46.140625 C 2.953125 -50.835938 4.097656 -54.5625 6.390625 -57.3125 C 8.679688 -60.0625 12.171875 -61.4375 16.859375 -61.4375 C 21.554688 -61.4375 25.0625 -60.0625 27.375 -57.3125 C 29.695312 -54.5625 30.859375 -50.835938 30.859375 -46.140625 L 30.859375 -14.6875 C 30.859375 -10.050781 29.695312 -6.34375 27.375 -3.5625 C 25.0625 -0.78125 21.554688 0.609375 16.859375 0.609375 C 12.171875 0.609375 8.679688 -0.78125 6.390625 -3.5625 C 4.097656 -6.34375 2.953125 -10.050781 2.953125 -14.6875 Z M 9.640625 -14.34375 C 9.640625 -11.5625 10.234375 -9.398438 11.421875 -7.859375 C 12.609375 -6.328125 14.421875 -5.5625 16.859375 -5.5625 C 19.347656 -5.5625 21.171875 -6.328125 22.328125 -7.859375 C 23.492188 -9.398438 24.078125 -11.5625 24.078125 -14.34375 L 24.078125 -46.5 C 24.078125 -49.28125 23.492188 -51.4375 22.328125 -52.96875 C 21.171875 -54.5 19.347656 -55.265625 16.859375 -55.265625 C 14.421875 -55.265625 12.609375 -54.5 11.421875 -52.96875 C 10.234375 -51.4375 9.640625 -49.28125 9.640625 -46.5 Z M 9.640625 -14.34375 "/></g></g></g><g fill="#484848" fill-opacity="1"><g transform="translate(216.533916, 65.833059)"><g/></g></g><g fill="#484848" fill-opacity="1"><g transform="translate(232.448898, 65.833059)"><g><path d="M 17.90625 -60.828125 C 22.882812 -60.828125 26.488281 -59.664062 28.71875 -57.34375 C 30.945312 -55.03125 32.0625 -51.53125 32.0625 -46.84375 L 32.0625 -44.671875 C 32.0625 -41.546875 31.566406 -38.96875 30.578125 -36.9375 C 29.597656 -34.90625 28.035156 -33.398438 25.890625 -32.421875 C 28.503906 -31.429688 30.347656 -29.820312 31.421875 -27.59375 C 32.492188 -25.363281 33.03125 -22.625 33.03125 -19.375 L 33.03125 -14.421875 C 33.03125 -9.734375 31.8125 -6.15625 29.375 -3.6875 C 26.9375 -1.226562 23.316406 0 18.515625 0 L 3.46875 0 L 3.46875 -60.828125 Z M 13.03125 -27.375 L 13.03125 -8.6875 L 18.515625 -8.6875 C 20.128906 -8.6875 21.359375 -9.117188 22.203125 -9.984375 C 23.046875 -10.859375 23.46875 -12.425781 23.46875 -14.6875 L 23.46875 -19.984375 C 23.46875 -22.828125 22.988281 -24.769531 22.03125 -25.8125 C 21.070312 -26.851562 19.492188 -27.375 17.296875 -27.375 Z M 13.03125 -52.140625 L 13.03125 -36.0625 L 16.765625 -36.0625 C 18.566406 -36.0625 19.972656 -36.523438 20.984375 -37.453125 C 22.003906 -38.378906 22.515625 -40.0625 22.515625 -42.5 L 22.515625 -45.890625 C 22.515625 -48.085938 22.117188 -49.675781 21.328125 -50.65625 C 20.546875 -51.644531 19.316406 -52.140625 17.640625 -52.140625 Z M 13.03125 -52.140625 "/></g></g></g><g fill="#484848" fill-opacity="1"><g transform="translate(269.727629, 65.833059)"><g><path d="M 12.6875 -9.21875 L 12.6875 0 L 3.46875 0 L 3.46875 -9.21875 Z M 12.6875 -9.21875 "/></g></g></g><g fill="#484848" fill-opacity="1"><g transform="translate(288.323721, 65.833059)"><g><path d="M 17.5625 -60.828125 C 22.363281 -60.828125 25.9375 -59.550781 28.28125 -57 C 30.632812 -54.457031 31.8125 -50.722656 31.8125 -45.796875 L 31.8125 -37.890625 C 31.8125 -32.960938 30.632812 -29.222656 28.28125 -26.671875 C 25.9375 -24.128906 22.363281 -22.859375 17.5625 -22.859375 L 13.03125 -22.859375 L 13.03125 0 L 3.46875 0 L 3.46875 -60.828125 Z M 13.03125 -52.140625 L 13.03125 -31.546875 L 17.5625 -31.546875 C 19.0625 -31.546875 20.21875 -31.953125 21.03125 -32.765625 C 21.84375 -33.578125 22.25 -35.082031 22.25 -37.28125 L 22.25 -46.40625 C 22.25 -48.601562 21.84375 -50.109375 21.03125 -50.921875 C 20.21875 -51.734375 19.0625 -52.140625 17.5625 -52.140625 Z M 13.03125 -52.140625 "/></g></g></g><g fill="#484848" fill-opacity="1"><g transform="translate(316.99894, 65.833059)"><g><path d="M 12.6875 -9.21875 L 12.6875 0 L 3.46875 0 L 3.46875 -9.21875 Z M 12.6875 -9.21875 "/></g></g></g><g fill="#484848" fill-opacity="1"><g transform="translate(334.725959, 65.833059)"><g><path d="M 12.25 -13.984375 C 12.25 -11.785156 12.695312 -10.238281 13.59375 -9.34375 C 14.5 -8.445312 15.703125 -8 17.203125 -8 C 18.710938 -8 19.914062 -8.445312 20.8125 -9.34375 C 21.707031 -10.238281 22.15625 -11.785156 22.15625 -13.984375 L 22.15625 -46.84375 C 22.15625 -49.039062 21.707031 -50.585938 20.8125 -51.484375 C 19.914062 -52.390625 18.710938 -52.84375 17.203125 -52.84375 C 15.703125 -52.84375 14.5 -52.390625 13.59375 -51.484375 C 12.695312 -50.585938 12.25 -49.039062 12.25 -46.84375 Z M 2.6875 -46.234375 C 2.6875 -51.160156 3.929688 -54.941406 6.421875 -57.578125 C 8.921875 -60.210938 12.515625 -61.53125 17.203125 -61.53125 C 21.898438 -61.53125 25.492188 -60.210938 27.984375 -57.578125 C 30.472656 -54.941406 31.71875 -51.160156 31.71875 -46.234375 L 31.71875 -14.59375 C 31.71875 -9.675781 30.472656 -5.898438 27.984375 -3.265625 C 25.492188 -0.628906 21.898438 0.6875 17.203125 0.6875 C 12.515625 0.6875 8.921875 -0.628906 6.421875 -3.265625 C 3.929688 -5.898438 2.6875 -9.675781 2.6875 -14.59375 Z M 2.6875 -46.234375 "/></g></g></g></g></g><g clip-path="url(#a1fb657894)"><g clip-path="url(#dffa58022f)"><g transform="matrix(1, 0, 0, 1, 25, 219)"><g clip-path="url(#7c69b51001)"><g clip-path="url(#7b760635a8)"><g clip-path="url(#c3db73761b)"><path fill="#484848" d="M 0.679688 0.0664062 L 148.339844 0.0664062 L 148.339844 146.585938 L 0.679688 146.585938 Z M 0.679688 0.0664062 " fill-opacity="1" fill-rule="nonzero"/></g></g></g></g></g></g><g transform="matrix(1, 0, 0, 1, 9, 210)"><g clip-path="url(#90258e68f7)"><g clip-path="url(#f15378c744)"><g fill="#ffffff" fill-opacity="1"><g transform="translate(0.312119, 151.452815)"><g><path d="M 7.609375 4.671875 C 7.429688 4.671875 7.195312 4.445312 6.90625 4 C 6.625 3.550781 6.34375 2.988281 6.0625 2.3125 C 5.78125 1.644531 5.539062 0.96875 5.34375 0.28125 C 5.15625 -0.394531 5.0625 -0.960938 5.0625 -1.421875 C 5.0625 -1.660156 5.113281 -1.878906 5.21875 -2.078125 C 6.113281 -3.785156 7.351562 -5.894531 8.9375 -8.40625 C 10.519531 -10.914062 12.378906 -13.738281 14.515625 -16.875 C 16.660156 -20.019531 19.019531 -23.394531 21.59375 -27 C 24.164062 -30.601562 26.894531 -34.363281 29.78125 -38.28125 C 32.664062 -42.195312 35.632812 -46.179688 38.6875 -50.234375 C 41.738281 -54.285156 44.820312 -58.320312 47.9375 -62.34375 C 51.050781 -66.363281 54.132812 -70.296875 57.1875 -74.140625 C 60.238281 -77.992188 63.191406 -81.65625 66.046875 -85.125 C 68.910156 -88.601562 71.601562 -91.828125 74.125 -94.796875 C 74.875 -95.671875 75.78125 -96.734375 76.84375 -97.984375 C 77.914062 -99.234375 79.054688 -100.585938 80.265625 -102.046875 C 81.472656 -103.515625 82.671875 -105.015625 83.859375 -106.546875 C 85.046875 -108.085938 86.113281 -109.578125 87.0625 -111.015625 C 88.019531 -112.453125 88.785156 -113.769531 89.359375 -114.96875 C 89.941406 -116.164062 90.234375 -117.164062 90.234375 -117.96875 C 90.234375 -118.070312 90.226562 -118.164062 90.21875 -118.25 C 90.207031 -118.34375 90.1875 -118.441406 90.15625 -118.546875 C 88.96875 -117.304688 87.289062 -116.148438 85.125 -115.078125 C 82.96875 -114.015625 80.46875 -113.019531 77.625 -112.09375 C 74.78125 -111.164062 71.722656 -110.296875 68.453125 -109.484375 C 65.179688 -108.671875 61.835938 -107.898438 58.421875 -107.171875 C 55.015625 -106.441406 51.664062 -105.742188 48.375 -105.078125 C 45.09375 -104.421875 42.007812 -103.785156 39.125 -103.171875 C 38.125 -102.960938 36.914062 -102.617188 35.5 -102.140625 C 34.082031 -101.671875 32.59375 -101.066406 31.03125 -100.328125 C 29.476562 -99.597656 27.945312 -98.71875 26.4375 -97.6875 C 24.9375 -96.65625 23.566406 -95.476562 22.328125 -94.15625 C 21.085938 -92.832031 20.097656 -91.34375 19.359375 -89.6875 C 18.628906 -88.039062 18.265625 -86.226562 18.265625 -84.25 C 18.265625 -83.289062 18.367188 -82.285156 18.578125 -81.234375 C 18.785156 -80.179688 19.109375 -79.085938 19.546875 -77.953125 C 20.035156 -76.941406 20.28125 -76.234375 20.28125 -75.828125 C 20.28125 -75.648438 20.226562 -75.5625 20.125 -75.5625 C 19.96875 -75.5625 19.664062 -75.9375 19.21875 -76.6875 C 18.769531 -77.445312 18.347656 -78.5 17.953125 -79.84375 C 17.566406 -81.1875 17.375 -82.691406 17.375 -84.359375 C 17.375 -85.953125 17.613281 -87.617188 18.09375 -89.359375 C 18.570312 -91.097656 19.390625 -92.820312 20.546875 -94.53125 C 21.703125 -96.25 23.269531 -97.875 25.25 -99.40625 C 27.238281 -100.9375 29.738281 -102.28125 32.75 -103.4375 C 35.894531 -104.675781 39.222656 -105.742188 42.734375 -106.640625 C 46.253906 -107.546875 49.859375 -108.394531 53.546875 -109.1875 C 57.242188 -109.988281 60.953125 -110.832031 64.671875 -111.71875 C 68.398438 -112.613281 72.050781 -113.648438 75.625 -114.828125 C 79.207031 -116.015625 82.632812 -117.453125 85.90625 -119.140625 C 89.175781 -120.828125 92.203125 -122.867188 94.984375 -125.265625 C 97.484375 -124.566406 98.734375 -123.050781 98.734375 -120.71875 C 98.734375 -117.59375 96.644531 -113.023438 92.46875 -107.015625 C 88.300781 -101.003906 82.1875 -93.53125 74.125 -84.59375 C 71.0625 -81.164062 67.816406 -77.457031 64.390625 -73.46875 C 60.960938 -69.476562 57.539062 -65.4375 54.125 -61.34375 C 59.582031 -66.675781 65.015625 -71.671875 70.421875 -76.328125 C 75.828125 -80.984375 81.078125 -85.222656 86.171875 -89.046875 C 91.273438 -92.878906 96.097656 -96.226562 100.640625 -99.09375 C 105.191406 -101.96875 109.332031 -104.28125 113.0625 -106.03125 C 114.988281 -106.9375 117.179688 -107.898438 119.640625 -108.921875 C 122.109375 -109.953125 124.707031 -110.925781 127.4375 -111.84375 C 130.164062 -112.757812 132.90625 -113.503906 135.65625 -114.078125 C 138.414062 -114.660156 141.070312 -114.953125 143.625 -114.953125 C 146.039062 -114.953125 148.273438 -114.617188 150.328125 -113.953125 C 152.390625 -113.285156 154.160156 -112.171875 155.640625 -110.609375 C 157.128906 -109.046875 158.207031 -106.925781 158.875 -104.25 C 159.03125 -103.664062 159.140625 -103.0625 159.203125 -102.4375 C 159.265625 -101.820312 159.296875 -101.207031 159.296875 -100.59375 C 159.296875 -98.601562 158.976562 -96.59375 158.34375 -94.5625 C 157.71875 -92.53125 156.863281 -90.523438 155.78125 -88.546875 C 154.695312 -86.578125 153.472656 -84.691406 152.109375 -82.890625 C 150.742188 -81.085938 149.34375 -79.414062 147.90625 -77.875 C 145.28125 -75.09375 142.457031 -72.472656 139.4375 -70.015625 C 136.425781 -67.554688 133.253906 -65.332031 129.921875 -63.34375 C 126.585938 -61.363281 123.128906 -59.703125 119.546875 -58.359375 C 115.117188 -56.691406 110.757812 -55.4375 106.46875 -54.59375 C 102.1875 -53.757812 98.203125 -53.34375 94.515625 -53.34375 C 90.710938 -53.34375 87.316406 -53.789062 84.328125 -54.6875 C 81.335938 -55.59375 79.003906 -56.945312 77.328125 -58.75 C 76.097656 -60.113281 75.117188 -61.390625 74.390625 -62.578125 C 73.671875 -63.765625 73.3125 -64.796875 73.3125 -65.671875 C 73.3125 -66.210938 73.476562 -66.675781 73.8125 -67.0625 C 74.144531 -67.445312 74.441406 -67.640625 74.703125 -67.640625 C 75.117188 -67.640625 75.363281 -67.265625 75.4375 -66.515625 C 75.695312 -64.378906 76.351562 -62.550781 77.40625 -61.03125 C 78.46875 -59.507812 80.039062 -58.347656 82.125 -57.546875 C 84.207031 -56.753906 86.898438 -56.359375 90.203125 -56.359375 C 93.179688 -56.359375 96.734375 -56.707031 100.859375 -57.40625 C 104.390625 -58.019531 107.738281 -58.882812 110.90625 -60 C 114.070312 -61.125 116.863281 -62.316406 119.28125 -63.578125 C 124.582031 -66.390625 129.578125 -69.710938 134.265625 -73.546875 C 138.953125 -77.378906 143.164062 -81.65625 146.90625 -86.375 C 148.238281 -88.039062 149.476562 -89.75 150.625 -91.5 C 151.769531 -93.257812 152.695312 -95.09375 153.40625 -97 C 154.113281 -98.90625 154.46875 -100.925781 154.46875 -103.0625 C 154.445312 -104.988281 154.039062 -106.578125 153.25 -107.828125 C 152.46875 -109.078125 151.453125 -110.0625 150.203125 -110.78125 C 148.953125 -111.5 147.585938 -112 146.109375 -112.28125 C 144.628906 -112.570312 143.179688 -112.71875 141.765625 -112.71875 C 140.960938 -112.71875 140.191406 -112.679688 139.453125 -112.609375 C 138.722656 -112.546875 138.0625 -112.453125 137.46875 -112.328125 C 134.125 -111.679688 130.660156 -110.765625 127.078125 -109.578125 C 123.503906 -108.398438 119.742188 -106.867188 115.796875 -104.984375 C 111.859375 -103.109375 107.664062 -100.789062 103.21875 -98.03125 C 99.84375 -95.945312 96.082031 -93.40625 91.9375 -90.40625 C 87.789062 -87.40625 83.300781 -83.84375 78.46875 -79.71875 C 73.644531 -75.601562 68.515625 -70.847656 63.078125 -65.453125 C 57.640625 -60.054688 51.953125 -53.925781 46.015625 -47.0625 C 40.085938 -40.207031 33.9375 -32.519531 27.5625 -24 C 21.1875 -15.488281 14.640625 -6.0625 7.921875 4.28125 C 7.867188 4.414062 7.832031 4.515625 7.8125 4.578125 C 7.800781 4.640625 7.734375 4.671875 7.609375 4.671875 Z M 7.609375 4.671875 "/></g></g></g></g></g></g></svg>